{
	"patcher" : 	{
		"fileversion" : 1,
		"appversion" : 		{
			"major" : 7,
			"minor" : 1,
			"revision" : 0,
			"architecture" : "x86",
			"modernui" : 1
		}
,
		"rect" : [ 818.0, 232.0, 781.0, 811.0 ],
		"bglocked" : 0,
		"openinpresentation" : 1,
		"default_fontsize" : 12.0,
		"default_fontface" : 0,
		"default_fontname" : "Arial",
		"gridonopen" : 1,
		"gridsize" : [ 15.0, 15.0 ],
		"gridsnaponopen" : 1,
		"objectsnaponopen" : 1,
		"statusbarvisible" : 2,
		"toolbarvisible" : 1,
		"lefttoolbarpinned" : 0,
		"toptoolbarpinned" : 0,
		"righttoolbarpinned" : 0,
		"bottomtoolbarpinned" : 0,
		"toolbars_unpinned_last_save" : 0,
		"tallnewobj" : 0,
		"boxanimatetime" : 200,
		"enablehscroll" : 1,
		"enablevscroll" : 1,
		"devicewidth" : 0.0,
		"description" : "",
		"digest" : "",
		"tags" : "",
		"style" : "",
		"subpatcher_template" : "",
		"boxes" : [ 			{
				"box" : 				{
					"id" : "obj-17",
					"maxclass" : "newobj",
					"numinlets" : 7,
					"numoutlets" : 1,
					"outlettype" : [ "int" ],
					"patching_rect" : [ 419.0, 699.0, 168.0, 22.0 ],
					"style" : "",
					"text" : "midiformat"
				}

			}
, 			{
				"box" : 				{
					"id" : "obj-14",
					"maxclass" : "newobj",
					"numinlets" : 2,
					"numoutlets" : 1,
					"outlettype" : [ "" ],
					"patching_rect" : [ 419.0, 656.0, 56.0, 22.0 ],
					"style" : "",
					"text" : "pack 0 0"
				}

			}
, 			{
				"box" : 				{
					"bubble" : 1,
					"fontname" : "Arial",
					"fontsize" : 13.0,
					"id" : "obj-15",
					"maxclass" : "comment",
					"numinlets" : 1,
					"numoutlets" : 0,
					"patching_rect" : [ 809.5, 581.0, 182.0, 25.0 ],
					"style" : "",
					"text" : "Send all note-offs out now"
				}

			}
, 			{
				"box" : 				{
					"bubble" : 1,
					"fontname" : "Arial",
					"fontsize" : 13.0,
					"id" : "obj-12",
					"maxclass" : "comment",
					"numinlets" : 1,
					"numoutlets" : 0,
					"patching_rect" : [ 649.5, 547.0, 112.0, 25.0 ],
					"style" : "",
					"text" : "duration in ms"
				}

			}
, 			{
				"box" : 				{
					"bubble" : 1,
					"fontname" : "Arial",
					"fontsize" : 13.0,
					"id" : "obj-11",
					"maxclass" : "comment",
					"numinlets" : 1,
					"numoutlets" : 0,
					"patching_rect" : [ 562.0, 516.0, 72.0, 25.0 ],
					"style" : "",
					"text" : "velocity"
				}

			}
, 			{
				"box" : 				{
					"bubble" : 1,
					"fontname" : "Arial",
					"fontsize" : 13.0,
					"id" : "obj-7",
					"maxclass" : "comment",
					"numinlets" : 1,
					"numoutlets" : 0,
					"patching_rect" : [ 475.0, 484.0, 245.0, 25.0 ],
					"style" : "",
					"text" : "int in left sets pitch and starts a note."
				}

			}
, 			{
				"box" : 				{
					"fontname" : "Arial",
					"fontsize" : 13.0,
					"id" : "obj-10",
					"maxclass" : "number",
					"numinlets" : 1,
					"numoutlets" : 2,
					"outlettype" : [ "", "bang" ],
					"parameter_enable" : 0,
					"patching_rect" : [ 593.5, 549.0, 53.0, 23.0 ],
					"style" : ""
				}

			}
, 			{
				"box" : 				{
					"id" : "obj-78",
					"maxclass" : "kslider",
					"numinlets" : 2,
					"numoutlets" : 2,
					"outlettype" : [ "int", "int" ],
					"parameter_enable" : 0,
					"patching_rect" : [ 419.0, 435.0, 224.0, 38.0 ],
					"presentation_rect" : [ 45.0, 45.0, 336.0, 53.0 ],
					"style" : ""
				}

			}
, 			{
				"box" : 				{
					"fontname" : "Arial",
					"fontsize" : 13.0,
					"id" : "obj-16",
					"maxclass" : "newobj",
					"numinlets" : 3,
					"numoutlets" : 2,
					"outlettype" : [ "float", "float" ],
					"patching_rect" : [ 419.0, 612.0, 193.5, 23.0 ],
					"style" : "",
					"text" : "makenote 60 1000"
				}

			}
, 			{
				"box" : 				{
					"fontname" : "Arial",
					"fontsize" : 13.0,
					"id" : "obj-24",
					"maxclass" : "number",
					"numinlets" : 1,
					"numoutlets" : 2,
					"outlettype" : [ "", "bang" ],
					"parameter_enable" : 0,
					"patching_rect" : [ 506.25, 518.0, 53.0, 23.0 ],
					"style" : ""
				}

			}
, 			{
				"box" : 				{
					"fontname" : "Arial",
					"fontsize" : 13.0,
					"id" : "obj-28",
					"maxclass" : "number",
					"numinlets" : 1,
					"numoutlets" : 2,
					"outlettype" : [ "", "bang" ],
					"parameter_enable" : 0,
					"patching_rect" : [ 419.0, 486.0, 53.0, 23.0 ],
					"style" : ""
				}

			}
, 			{
				"box" : 				{
					"fontname" : "Arial",
					"fontsize" : 13.0,
					"id" : "obj-9",
					"maxclass" : "message",
					"numinlets" : 2,
					"numoutlets" : 1,
					"outlettype" : [ "" ],
					"patching_rect" : [ 769.0, 584.0, 34.0, 23.0 ],
					"style" : "",
					"text" : "stop"
				}

			}
, 			{
				"box" : 				{
					"id" : "obj-1",
					"maxclass" : "newobj",
					"numinlets" : 1,
					"numoutlets" : 0,
					"patching_rect" : [ 419.0, 737.0, 101.0, 22.0 ],
					"style" : "",
					"text" : "s midiOutInternal"
				}

			}
, 			{
				"box" : 				{
					"bgmode" : 0,
					"border" : 0,
					"clickthrough" : 0,
					"enablehscroll" : 0,
					"enablevscroll" : 0,
					"extract" : 1,
					"id" : "obj-5",
					"lockeddragscroll" : 0,
					"maxclass" : "bpatcher",
					"name" : "bp.Arbitrary Note Map.maxpat",
					"numinlets" : 1,
					"numoutlets" : 1,
					"offset" : [ 0.0, 0.0 ],
					"outlettype" : [ "" ],
					"patching_rect" : [ 200.0, 31.0, 401.0, 216.0 ],
					"varname" : "bp.Arbitrary Note Map",
					"viewvisibility" : 1
				}

			}
, 			{
				"box" : 				{
					"id" : "obj-3",
					"maxclass" : "newobj",
					"numinlets" : 0,
					"numoutlets" : 1,
					"outlettype" : [ "" ],
					"patching_rect" : [ 200.0, 0.0, 99.0, 22.0 ],
					"style" : "",
					"text" : "r midiOutInternal"
				}

			}
, 			{
				"box" : 				{
					"bgmode" : 0,
					"border" : 0,
					"clickthrough" : 0,
					"enablehscroll" : 0,
					"enablevscroll" : 0,
					"extract" : 1,
					"id" : "obj-40",
					"lockeddragscroll" : 0,
					"maxclass" : "bpatcher",
					"name" : "bp.ADSR.maxpat",
					"numinlets" : 2,
					"numoutlets" : 1,
					"offset" : [ 0.0, 0.0 ],
					"outlettype" : [ "signal" ],
					"patching_rect" : [ 411.0, 280.0, 234.0, 116.0 ],
					"varname" : "bp.ADSR",
					"viewvisibility" : 1
				}

			}
, 			{
				"box" : 				{
					"bgmode" : 0,
					"border" : 0,
					"clickthrough" : 0,
					"embed" : 1,
					"enablehscroll" : 0,
					"enablevscroll" : 0,
					"id" : "obj-41",
					"lockeddragscroll" : 0,
					"maxclass" : "bpatcher",
					"numinlets" : 1,
					"numoutlets" : 5,
					"offset" : [ 0.0, 0.0 ],
					"outlettype" : [ "signal", "signal", "signal", "signal", "signal" ],
					"patcher" : 					{
						"fileversion" : 1,
						"appversion" : 						{
							"major" : 7,
							"minor" : 1,
							"revision" : 0,
							"architecture" : "x86",
							"modernui" : 1
						}
,
						"rect" : [ 837.0, 378.0, 163.0, 116.0 ],
						"bgcolor" : [ 1.0, 1.0, 1.0, 0.0 ],
						"bglocked" : 0,
						"openinpresentation" : 1,
						"default_fontsize" : 12.0,
						"default_fontface" : 0,
						"default_fontname" : "Arial",
						"gridonopen" : 1,
						"gridsize" : [ 15.0, 15.0 ],
						"gridsnaponopen" : 1,
						"objectsnaponopen" : 1,
						"statusbarvisible" : 1,
						"toolbarvisible" : 1,
						"lefttoolbarpinned" : 0,
						"toptoolbarpinned" : 0,
						"righttoolbarpinned" : 0,
						"bottomtoolbarpinned" : 0,
						"toolbars_unpinned_last_save" : 0,
						"tallnewobj" : 0,
						"boxanimatetime" : 200,
						"enablehscroll" : 1,
						"enablevscroll" : 1,
						"devicewidth" : 0.0,
						"description" : "",
						"digest" : "",
						"tags" : "",
						"style" : "",
						"subpatcher_template" : "",
						"boxes" : [ 							{
								"box" : 								{
									"id" : "obj-14",
									"maxclass" : "comment",
									"numinlets" : 1,
									"numoutlets" : 0,
									"patching_rect" : [ 27.173828, 89.0, 266.0, 20.0 ],
									"style" : "",
									"text" : "## Convert a MIDI message to a Beap signal ##"
								}

							}
, 							{
								"box" : 								{
									"fontname" : "Arial",
									"fontsize" : 12.0,
									"id" : "obj-32",
									"maxclass" : "newobj",
									"numinlets" : 2,
									"numoutlets" : 2,
									"outlettype" : [ "bang", "" ],
									"patching_rect" : [ 637.0, 473.0, 36.0, 22.0 ],
									"style" : "",
									"text" : "sel 1"
								}

							}
, 							{
								"box" : 								{
									"fontname" : "Arial Bold",
									"fontsize" : 9.0,
									"id" : "obj-7",
									"maxclass" : "comment",
									"numinlets" : 1,
									"numoutlets" : 0,
									"patching_rect" : [ 734.0, 98.0, 29.0, 17.0 ],
									"presentation" : 1,
									"presentation_rect" : [ 0.0, 0.0, 29.0, 17.0 ],
									"style" : "",
									"text" : "MIDI",
									"textcolor" : [ 1.0, 1.0, 1.0, 1.0 ]
								}

							}
, 							{
								"box" : 								{
									"comment" : "",
									"id" : "obj-2",
									"maxclass" : "inlet",
									"numinlets" : 0,
									"numoutlets" : 1,
									"outlettype" : [ "" ],
									"patching_rect" : [ 701.814819, 98.0, 25.0, 25.0 ],
									"style" : ""
								}

							}
, 							{
								"box" : 								{
									"activedialcolor" : [ 0.278431, 0.839216, 1.0, 1.0 ],
									"activeneedlecolor" : [ 1.0, 1.0, 1.0, 0.7 ],
									"focusbordercolor" : [ 1.0, 1.0, 1.0, 1.0 ],
									"id" : "obj-28",
									"maxclass" : "live.dial",
									"numinlets" : 1,
									"numoutlets" : 2,
									"outlettype" : [ "", "float" ],
									"parameter_enable" : 1,
									"patching_rect" : [ 423.650024, 505.883911, 44.0, 47.0 ],
									"presentation" : 1,
									"presentation_rect" : [ 119.25, 43.0, 44.0, 47.0 ],
									"saved_attribute_attributes" : 									{
										"valueof" : 										{
											"parameter_longname" : "Bend",
											"parameter_shortname" : "Bend",
											"parameter_type" : 1,
											"parameter_mmax" : 12.0,
											"parameter_initial_enable" : 1,
											"parameter_initial" : [ 2 ],
											"parameter_unitstyle" : 7,
											"parameter_exponent" : 2.0
										}

									}
,
									"textcolor" : [ 1.0, 1.0, 1.0, 0.7 ],
									"varname" : "Bend"
								}

							}
, 							{
								"box" : 								{
									"fontname" : "Arial",
									"fontsize" : 12.0,
									"id" : "obj-60",
									"maxclass" : "newobj",
									"numinlets" : 2,
									"numoutlets" : 2,
									"outlettype" : [ "", "" ],
									"patching_rect" : [ 995.0, 510.0, 48.0, 22.0 ],
									"style" : "",
									"text" : "route 1"
								}

							}
, 							{
								"box" : 								{
									"fontname" : "Arial",
									"fontsize" : 12.0,
									"id" : "obj-39",
									"maxclass" : "newobj",
									"numinlets" : 1,
									"numoutlets" : 2,
									"outlettype" : [ "int", "int" ],
									"patching_rect" : [ 701.814819, 181.470001, 61.185181, 22.0 ],
									"style" : "",
									"text" : "unpack"
								}

							}
, 							{
								"box" : 								{
									"fontname" : "Arial",
									"fontsize" : 12.0,
									"id" : "obj-19",
									"maxclass" : "newobj",
									"numinlets" : 1,
									"numoutlets" : 7,
									"outlettype" : [ "", "", "", "int", "int", "int", "int" ],
									"patching_rect" : [ 701.814819, 142.0, 235.5, 22.0 ],
									"style" : "",
									"text" : "midiparse"
								}

							}
, 							{
								"box" : 								{
									"fontname" : "Arial",
									"fontsize" : 12.0,
									"id" : "obj-38",
									"maxclass" : "newobj",
									"numinlets" : 1,
									"numoutlets" : 1,
									"outlettype" : [ "signal" ],
									"patching_rect" : [ 822.5, 692.0, 33.0, 22.0 ],
									"style" : "",
									"text" : "sig~"
								}

							}
, 							{
								"box" : 								{
									"fontname" : "Arial",
									"fontsize" : 12.0,
									"id" : "obj-37",
									"maxclass" : "newobj",
									"numinlets" : 6,
									"numoutlets" : 1,
									"outlettype" : [ "" ],
									"patching_rect" : [ 822.5, 596.0, 99.0, 22.0 ],
									"style" : "",
									"text" : "scale 1 127 0. 5."
								}

							}
, 							{
								"box" : 								{
									"fontname" : "Arial",
									"fontsize" : 12.0,
									"id" : "obj-6",
									"maxclass" : "newobj",
									"numinlets" : 2,
									"numoutlets" : 2,
									"outlettype" : [ "int", "int" ],
									"patching_rect" : [ 784.5, 519.383911, 57.0, 22.0 ],
									"style" : "",
									"text" : "stripnote"
								}

							}
, 							{
								"box" : 								{
									"fontname" : "Arial",
									"fontsize" : 12.0,
									"id" : "obj-74",
									"maxclass" : "newobj",
									"numinlets" : 2,
									"numoutlets" : 1,
									"outlettype" : [ "int" ],
									"patching_rect" : [ 637.0, 445.0, 32.5, 22.0 ],
									"style" : "",
									"text" : "> 0"
								}

							}
, 							{
								"box" : 								{
									"activebgcolor" : [ 0.0, 0.019608, 0.078431, 0.4 ],
									"activebgoncolor" : [ 0.0, 0.796946, 0.94902, 1.0 ],
									"activetextcolor" : [ 0.0, 0.019608, 0.078431, 0.0 ],
									"activetextoncolor" : [ 0.0, 0.019608, 0.078431, 0.0 ],
									"bgcolor" : [ 0.0, 0.019608, 0.078431, 0.4 ],
									"bordercolor" : [ 0.0, 0.019608, 0.078431, 0.0 ],
									"focusbordercolor" : [ 0.0, 0.019608, 0.078431, 0.0 ],
									"id" : "obj-69",
									"maxclass" : "live.text",
									"mode" : 0,
									"numinlets" : 1,
									"numoutlets" : 2,
									"outlettype" : [ "", "" ],
									"parameter_enable" : 1,
									"patching_rect" : [ 601.0, 578.5, 13.957568, 13.887903 ],
									"presentation" : 1,
									"presentation_rect" : [ 31.792431, 99.5, 10.77126, 10.472361 ],
									"saved_attribute_attributes" : 									{
										"valueof" : 										{
											"parameter_longname" : "1voctled",
											"parameter_shortname" : "1voctled",
											"parameter_type" : 2,
											"parameter_mmax" : 1.0,
											"parameter_enum" : [ "val1", "val2" ],
											"parameter_invisible" : 2
										}

									}
,
									"text" : ".",
									"textcolor" : [ 0.0, 0.019608, 0.078431, 0.0 ],
									"varname" : "live.text"
								}

							}
, 							{
								"box" : 								{
									"fontname" : "Arial",
									"fontsize" : 12.0,
									"id" : "obj-62",
									"maxclass" : "message",
									"numinlets" : 2,
									"numoutlets" : 1,
									"outlettype" : [ "" ],
									"patching_rect" : [ 637.0, 613.0, 32.5, 22.0 ],
									"style" : "",
									"text" : "5"
								}

							}
, 							{
								"box" : 								{
									"fontname" : "Arial",
									"fontsize" : 12.0,
									"id" : "obj-61",
									"maxclass" : "message",
									"numinlets" : 2,
									"numoutlets" : 1,
									"outlettype" : [ "" ],
									"patching_rect" : [ 686.0, 613.0, 32.5, 22.0 ],
									"style" : "",
									"text" : "0"
								}

							}
, 							{
								"box" : 								{
									"fontname" : "Arial",
									"fontsize" : 12.0,
									"id" : "obj-57",
									"maxclass" : "newobj",
									"numinlets" : 2,
									"numoutlets" : 1,
									"outlettype" : [ "bang" ],
									"patching_rect" : [ 686.0, 566.917297, 56.0, 22.0 ],
									"style" : "",
									"text" : "delay 10"
								}

							}
, 							{
								"box" : 								{
									"fontname" : "Arial Bold",
									"fontsize" : 9.0,
									"id" : "obj-12",
									"maxclass" : "comment",
									"numinlets" : 1,
									"numoutlets" : 0,
									"patching_rect" : [ 711.0, 740.0, 27.0, 17.0 ],
									"presentation" : 1,
									"presentation_rect" : [ 72.60717, 97.0, 27.0, 17.0 ],
									"style" : "",
									"text" : "Trig",
									"textcolor" : [ 1.0, 1.0, 1.0, 1.0 ]
								}

							}
, 							{
								"box" : 								{
									"fontname" : "Arial",
									"fontsize" : 12.0,
									"id" : "obj-13",
									"maxclass" : "newobj",
									"numinlets" : 1,
									"numoutlets" : 1,
									"outlettype" : [ "signal" ],
									"patching_rect" : [ 686.0, 692.0, 33.0, 22.0 ],
									"style" : "",
									"text" : "sig~"
								}

							}
, 							{
								"box" : 								{
									"comment" : "",
									"id" : "obj-53",
									"maxclass" : "outlet",
									"numinlets" : 1,
									"numoutlets" : 0,
									"patching_rect" : [ 686.0, 740.0, 25.0, 25.0 ],
									"style" : ""
								}

							}
, 							{
								"box" : 								{
									"fontname" : "Arial",
									"fontsize" : 12.0,
									"id" : "obj-59",
									"maxclass" : "newobj",
									"numinlets" : 2,
									"numoutlets" : 1,
									"outlettype" : [ "" ],
									"patching_rect" : [ 256.5, 639.0, 127.75, 22.0 ],
									"style" : "",
									"text" : "pak f f"
								}

							}
, 							{
								"box" : 								{
									"fontname" : "Arial",
									"fontsize" : 12.0,
									"id" : "obj-58",
									"maxclass" : "newobj",
									"numinlets" : 2,
									"numoutlets" : 1,
									"outlettype" : [ "float" ],
									"patching_rect" : [ 256.5, 675.0, 32.5, 22.0 ],
									"style" : "",
									"text" : "+ 0."
								}

							}
, 							{
								"box" : 								{
									"fontname" : "Arial",
									"fontsize" : 12.0,
									"id" : "obj-48",
									"maxclass" : "newobj",
									"numinlets" : 6,
									"numoutlets" : 1,
									"outlettype" : [ "" ],
									"patching_rect" : [ 365.25, 572.883911, 92.0, 22.0 ],
									"style" : "",
									"text" : "scale 0 63 0. 2."
								}

							}
, 							{
								"box" : 								{
									"fontname" : "Arial",
									"fontsize" : 12.0,
									"id" : "obj-46",
									"maxclass" : "newobj",
									"numinlets" : 2,
									"numoutlets" : 1,
									"outlettype" : [ "int" ],
									"patching_rect" : [ 365.25, 532.883911, 32.5, 22.0 ],
									"style" : "",
									"text" : "- 64"
								}

							}
, 							{
								"box" : 								{
									"fontname" : "Arial",
									"fontsize" : 12.0,
									"id" : "obj-45",
									"maxclass" : "newobj",
									"numinlets" : 1,
									"numoutlets" : 3,
									"outlettype" : [ "", "", "" ],
									"patching_rect" : [ 995.0, 588.0, 61.0, 22.0 ],
									"restore" : [ 5.0 ],
									"saved_object_attributes" : 									{
										"parameter_enable" : 0
									}
,
									"style" : "",
									"text" : "pattr mod",
									"varname" : "mod"
								}

							}
, 							{
								"box" : 								{
									"fontname" : "Arial",
									"fontsize" : 12.0,
									"id" : "obj-40",
									"maxclass" : "newobj",
									"numinlets" : 1,
									"numoutlets" : 3,
									"outlettype" : [ "", "", "" ],
									"patching_rect" : [ 822.5, 647.5, 78.0, 22.0 ],
									"restore" : [ 0.277778 ],
									"saved_object_attributes" : 									{
										"parameter_enable" : 0
									}
,
									"style" : "",
									"text" : "pattr velocity",
									"varname" : "velocity"
								}

							}
, 							{
								"box" : 								{
									"fontname" : "Arial",
									"fontsize" : 12.0,
									"id" : "obj-33",
									"maxclass" : "newobj",
									"numinlets" : 1,
									"numoutlets" : 3,
									"outlettype" : [ "", "", "" ],
									"patching_rect" : [ 529.5, 647.5, 61.0, 22.0 ],
									"restore" : [ 0 ],
									"saved_object_attributes" : 									{
										"parameter_enable" : 0
									}
,
									"style" : "",
									"text" : "pattr gate",
									"varname" : "gate"
								}

							}
, 							{
								"box" : 								{
									"fontname" : "Arial",
									"fontsize" : 12.0,
									"id" : "obj-22",
									"maxclass" : "newobj",
									"numinlets" : 1,
									"numoutlets" : 3,
									"outlettype" : [ "", "", "" ],
									"patching_rect" : [ 256.5, 740.0, 61.0, 22.0 ],
									"restore" : [ -0.416667 ],
									"saved_object_attributes" : 									{
										"parameter_enable" : 0
									}
,
									"style" : "",
									"text" : "pattr note",
									"varname" : "note"
								}

							}
, 							{
								"box" : 								{
									"bgcolor" : [ 0.0, 0.0, 0.0, 1.0 ],
									"bgfillcolor_angle" : 270.0,
									"bgfillcolor_color" : [ 0.0, 0.0, 0.0, 1.0 ],
									"bgfillcolor_color1" : [ 0.435294, 0.462745, 0.498039, 1.0 ],
									"bgfillcolor_color2" : [ 0.290196, 0.309804, 0.301961, 1.0 ],
									"bgfillcolor_proportion" : 0.39,
									"bgfillcolor_type" : "color",
									"fontsize" : 10.0,
									"id" : "obj-47",
									"items" : [ "Last", "Note", "Priority", ",", "High", "Note", "Priority", ",", "Low", "Note", "Priority" ],
									"maxclass" : "umenu",
									"numinlets" : 1,
									"numoutlets" : 3,
									"outlettype" : [ "int", "", "" ],
									"parameter_enable" : 0,
									"patching_rect" : [ 375.5, 101.5, 158.0, 20.0 ],
									"pattrmode" : 1,
									"presentation" : 1,
									"presentation_rect" : [ 4.0, 69.292229, 105.25, 20.0 ],
									"style" : "",
									"textcolor" : [ 0.278431, 0.839216, 1.0, 1.0 ],
									"varname" : "NotePriority"
								}

							}
, 							{
								"box" : 								{
									"bgcolor" : [ 0.0, 0.0, 0.0, 1.0 ],
									"bgfillcolor_angle" : 270.0,
									"bgfillcolor_color" : [ 0.0, 0.0, 0.0, 1.0 ],
									"bgfillcolor_color1" : [ 0.435294, 0.462745, 0.498039, 1.0 ],
									"bgfillcolor_color2" : [ 0.290196, 0.309804, 0.301961, 1.0 ],
									"bgfillcolor_proportion" : 0.39,
									"bgfillcolor_type" : "color",
									"fontsize" : 10.0,
									"id" : "obj-34",
									"items" : [ "Retrigger", ",", "Legato", ",", "Last", "Step" ],
									"maxclass" : "umenu",
									"numinlets" : 1,
									"numoutlets" : 3,
									"outlettype" : [ "int", "", "" ],
									"parameter_enable" : 0,
									"patching_rect" : [ 435.214844, 192.970001, 158.0, 20.0 ],
									"pattrmode" : 1,
									"presentation" : 1,
									"presentation_rect" : [ 2.5, 47.0, 106.75, 20.0 ],
									"style" : "",
									"textcolor" : [ 0.278431, 0.839216, 1.0, 1.0 ],
									"varname" : "Triggering"
								}

							}
, 							{
								"box" : 								{
									"fontname" : "Arial",
									"fontsize" : 12.0,
									"id" : "obj-24",
									"maxclass" : "message",
									"numinlets" : 2,
									"numoutlets" : 1,
									"outlettype" : [ "" ],
									"patching_rect" : [ 435.214844, 227.970001, 90.0, 22.0 ],
									"style" : "",
									"text" : "legatomode $1"
								}

							}
, 							{
								"box" : 								{
									"fontname" : "Arial",
									"fontsize" : 12.0,
									"id" : "obj-25",
									"maxclass" : "message",
									"numinlets" : 2,
									"numoutlets" : 1,
									"outlettype" : [ "" ],
									"patching_rect" : [ 375.5, 142.0, 57.0, 22.0 ],
									"style" : "",
									"text" : "mode $1"
								}

							}
, 							{
								"box" : 								{
									"fontname" : "Arial",
									"fontsize" : 12.0,
									"id" : "obj-1",
									"maxclass" : "newobj",
									"numinlets" : 2,
									"numoutlets" : 2,
									"outlettype" : [ "int", "int" ],
									"patching_rect" : [ 375.5, 335.0, 193.0, 22.0 ],
									"style" : "",
									"text" : "ddg.mono 1"
								}

							}
, 							{
								"box" : 								{
									"activebgcolor" : [ 0.0, 0.019608, 0.078431, 0.4 ],
									"activebgoncolor" : [ 0.0, 0.796946, 0.94902, 1.0 ],
									"id" : "obj-20",
									"ignoreclick" : 1,
									"maxclass" : "live.button",
									"numinlets" : 1,
									"numoutlets" : 1,
									"outlettype" : [ "" ],
									"parameter_enable" : 1,
									"patching_rect" : [ 967.816528, 588.0, 15.0, 15.0 ],
									"presentation" : 1,
									"presentation_rect" : [ 119.25, 96.5, 15.0, 15.0 ],
									"saved_attribute_attributes" : 									{
										"valueof" : 										{
											"parameter_longname" : "ModWheelActivityLED",
											"parameter_shortname" : "ModWheelActivityLED",
											"parameter_type" : 2,
											"parameter_mmax" : 1.0,
											"parameter_enum" : [ "off", "on" ],
											"parameter_invisible" : 2
										}

									}
,
									"varname" : "ModWheelActivityLED"
								}

							}
, 							{
								"box" : 								{
									"fontname" : "Arial Bold",
									"fontsize" : 9.0,
									"id" : "obj-3",
									"maxclass" : "comment",
									"numinlets" : 1,
									"numoutlets" : 0,
									"patching_rect" : [ 1044.316528, 740.0, 29.0, 17.0 ],
									"presentation" : 1,
									"presentation_rect" : [ 129.21434, 96.5, 29.0, 17.0 ],
									"style" : "",
									"text" : "Mod",
									"textcolor" : [ 1.0, 1.0, 1.0, 1.0 ]
								}

							}
, 							{
								"box" : 								{
									"fontname" : "Arial Bold",
									"fontsize" : 9.0,
									"id" : "obj-10",
									"maxclass" : "comment",
									"numinlets" : 1,
									"numoutlets" : 0,
									"patching_rect" : [ 879.5, 740.0, 24.0, 17.0 ],
									"presentation" : 1,
									"presentation_rect" : [ 103.910751, 96.5, 24.0, 17.0 ],
									"style" : "",
									"text" : "Vel",
									"textcolor" : [ 1.0, 1.0, 1.0, 1.0 ]
								}

							}
, 							{
								"box" : 								{
									"fontname" : "Arial Bold",
									"fontsize" : 9.0,
									"id" : "obj-4",
									"maxclass" : "comment",
									"numinlets" : 1,
									"numoutlets" : 0,
									"patching_rect" : [ 560.5, 740.0, 31.0, 17.0 ],
									"presentation" : 1,
									"presentation_rect" : [ 41.303585, 96.5, 31.0, 17.0 ],
									"style" : "",
									"text" : "Gate",
									"textcolor" : [ 1.0, 1.0, 1.0, 1.0 ]
								}

							}
, 							{
								"box" : 								{
									"fontname" : "Arial Bold",
									"fontsize" : 9.0,
									"id" : "obj-5",
									"maxclass" : "comment",
									"numinlets" : 1,
									"numoutlets" : 0,
									"patching_rect" : [ 285.5, 817.0, 37.0, 17.0 ],
									"presentation" : 1,
									"presentation_rect" : [ 2.0, 96.5, 37.0, 17.0 ],
									"style" : "",
									"text" : "1v/oct",
									"textcolor" : [ 1.0, 1.0, 1.0, 1.0 ]
								}

							}
, 							{
								"box" : 								{
									"fontname" : "Arial Bold",
									"fontsize" : 9.0,
									"id" : "obj-16",
									"maxclass" : "comment",
									"numinlets" : 1,
									"numoutlets" : 0,
									"patching_rect" : [ 27.173828, 61.883911, 81.0, 17.0 ],
									"presentation" : 1,
									"presentation_rect" : [ 2.5, 18.818798, 81.0, 17.0 ],
									"style" : "",
									"text" : "MIDI TO SIGNAL",
									"textcolor" : [ 1.0, 1.0, 1.0, 1.0 ]
								}

							}
, 							{
								"box" : 								{
									"fontname" : "Arial",
									"fontsize" : 11.595187,
									"id" : "obj-11",
									"maxclass" : "newobj",
									"numinlets" : 2,
									"numoutlets" : 2,
									"outlettype" : [ "signal", "bang" ],
									"patching_rect" : [ 995.0, 669.0, 35.0, 21.0 ],
									"style" : "",
									"text" : "line~"
								}

							}
, 							{
								"box" : 								{
									"fontname" : "Arial",
									"fontsize" : 11.595187,
									"id" : "obj-23",
									"maxclass" : "message",
									"numinlets" : 2,
									"numoutlets" : 1,
									"outlettype" : [ "" ],
									"patching_rect" : [ 995.0, 624.5, 40.0, 21.0 ],
									"style" : "",
									"text" : "$1 10"
								}

							}
, 							{
								"box" : 								{
									"fontname" : "Arial",
									"fontsize" : 12.0,
									"id" : "obj-17",
									"maxclass" : "newobj",
									"numinlets" : 1,
									"numoutlets" : 4,
									"outlettype" : [ "", "", "", "" ],
									"patching_rect" : [ 27.173828, 117.5, 59.5, 22.0 ],
									"restore" : 									{
										"Bend" : [ 2.0 ],
										"ModWheelActivityLED" : [ 0.0 ],
										"NotePriority" : [ "Last Note Priority" ],
										"Triggering" : [ "Retrigger" ],
										"live.text" : [ 0.0 ]
									}
,
									"style" : "",
									"text" : "autopattr",
									"varname" : "u636009688"
								}

							}
, 							{
								"box" : 								{
									"fontname" : "Arial",
									"fontsize" : 12.0,
									"id" : "obj-26",
									"maxclass" : "newobj",
									"numinlets" : 6,
									"numoutlets" : 1,
									"outlettype" : [ "" ],
									"patching_rect" : [ 995.0, 553.0, 99.0, 22.0 ],
									"style" : "",
									"text" : "scale 0 127 0. 5."
								}

							}
, 							{
								"box" : 								{
									"comment" : "",
									"id" : "obj-27",
									"maxclass" : "outlet",
									"numinlets" : 1,
									"numoutlets" : 0,
									"patching_rect" : [ 995.0, 740.0, 25.0, 25.0 ],
									"style" : ""
								}

							}
, 							{
								"box" : 								{
									"fontname" : "Arial",
									"fontsize" : 12.0,
									"id" : "obj-30",
									"maxclass" : "newobj",
									"numinlets" : 1,
									"numoutlets" : 1,
									"outlettype" : [ "signal" ],
									"patching_rect" : [ 529.5, 692.0, 33.0, 22.0 ],
									"style" : "",
									"text" : "sig~"
								}

							}
, 							{
								"box" : 								{
									"fontname" : "Arial",
									"fontsize" : 12.0,
									"id" : "obj-44",
									"maxclass" : "newobj",
									"numinlets" : 2,
									"numoutlets" : 1,
									"outlettype" : [ "int" ],
									"patching_rect" : [ 529.5, 566.917297, 32.5, 22.0 ],
									"style" : "",
									"text" : "* 5"
								}

							}
, 							{
								"box" : 								{
									"fontname" : "Arial",
									"fontsize" : 12.0,
									"id" : "obj-36",
									"maxclass" : "newobj",
									"numinlets" : 2,
									"numoutlets" : 1,
									"outlettype" : [ "int" ],
									"patching_rect" : [ 529.5, 510.0, 32.5, 22.0 ],
									"style" : "",
									"text" : "> 0"
								}

							}
, 							{
								"box" : 								{
									"fontname" : "Arial",
									"fontsize" : 12.0,
									"id" : "obj-35",
									"maxclass" : "newobj",
									"numinlets" : 1,
									"numoutlets" : 1,
									"outlettype" : [ "signal" ],
									"patching_rect" : [ 256.5, 778.0, 33.0, 22.0 ],
									"style" : "",
									"text" : "sig~"
								}

							}
, 							{
								"box" : 								{
									"fontname" : "Arial",
									"fontsize" : 12.0,
									"id" : "obj-31",
									"maxclass" : "newobj",
									"numinlets" : 6,
									"numoutlets" : 1,
									"outlettype" : [ "" ],
									"patching_rect" : [ 256.5, 705.0, 109.0, 22.0 ],
									"style" : "",
									"text" : "scale 0. 120. -5. 5."
								}

							}
, 							{
								"box" : 								{
									"comment" : "",
									"id" : "obj-49",
									"maxclass" : "outlet",
									"numinlets" : 1,
									"numoutlets" : 0,
									"patching_rect" : [ 256.5, 817.0, 25.0, 25.0 ],
									"style" : ""
								}

							}
, 							{
								"box" : 								{
									"comment" : "",
									"id" : "obj-50",
									"maxclass" : "outlet",
									"numinlets" : 1,
									"numoutlets" : 0,
									"patching_rect" : [ 529.5, 740.0, 25.0, 25.0 ],
									"style" : ""
								}

							}
, 							{
								"box" : 								{
									"comment" : "",
									"id" : "obj-51",
									"maxclass" : "outlet",
									"numinlets" : 1,
									"numoutlets" : 0,
									"patching_rect" : [ 822.5, 740.0, 25.0, 25.0 ],
									"style" : ""
								}

							}
, 							{
								"box" : 								{
									"angle" : 0.0,
									"background" : 1,
									"bgcolor" : [ 0.137255, 0.145098, 0.160784, 0.65 ],
									"id" : "obj-130",
									"maxclass" : "panel",
									"mode" : 0,
									"numinlets" : 1,
									"numoutlets" : 0,
									"patching_rect" : [ 27.173828, 37.529999, 37.0, 5.0 ],
									"presentation" : 1,
									"presentation_rect" : [ 0.0, 37.0, 283.0, 60.338158 ],
									"proportion" : 0.39,
									"rounded" : 0,
									"style" : ""
								}

							}
, 							{
								"box" : 								{
									"angle" : 0.0,
									"background" : 1,
									"bgcolor" : [ 0.367404, 0.389405, 0.430238, 1.0 ],
									"id" : "obj-131",
									"maxclass" : "panel",
									"mode" : 0,
									"numinlets" : 1,
									"numoutlets" : 0,
									"patching_rect" : [ 87.0, 37.529999, 37.0, 5.0 ],
									"presentation" : 1,
									"presentation_rect" : [ 0.0, 17.0, 283.0, 80.338158 ],
									"proportion" : 0.39,
									"rounded" : 0,
									"style" : ""
								}

							}
, 							{
								"box" : 								{
									"angle" : 0.0,
									"background" : 1,
									"bgcolor" : [ 0.0, 0.0, 0.0, 1.0 ],
									"id" : "obj-135",
									"maxclass" : "panel",
									"mode" : 0,
									"numinlets" : 1,
									"numoutlets" : 0,
									"patching_rect" : [ 144.673828, 37.529999, 37.0, 5.0 ],
									"presentation" : 1,
									"presentation_rect" : [ 0.0, 0.0, 283.0, 133.0 ],
									"proportion" : 0.39,
									"rounded" : 0,
									"style" : ""
								}

							}
 ],
						"lines" : [ 							{
								"patchline" : 								{
									"destination" : [ "obj-36", 0 ],
									"disabled" : 0,
									"hidden" : 0,
									"source" : [ "obj-1", 1 ]
								}

							}
, 							{
								"patchline" : 								{
									"destination" : [ "obj-59", 0 ],
									"disabled" : 0,
									"hidden" : 0,
									"source" : [ "obj-1", 0 ]
								}

							}
, 							{
								"patchline" : 								{
									"destination" : [ "obj-74", 0 ],
									"disabled" : 0,
									"hidden" : 0,
									"source" : [ "obj-1", 1 ]
								}

							}
, 							{
								"patchline" : 								{
									"destination" : [ "obj-27", 0 ],
									"disabled" : 0,
									"hidden" : 0,
									"source" : [ "obj-11", 0 ]
								}

							}
, 							{
								"patchline" : 								{
									"destination" : [ "obj-53", 0 ],
									"disabled" : 0,
									"hidden" : 0,
									"source" : [ "obj-13", 0 ]
								}

							}
, 							{
								"patchline" : 								{
									"destination" : [ "obj-39", 0 ],
									"disabled" : 0,
									"hidden" : 0,
									"source" : [ "obj-19", 0 ]
								}

							}
, 							{
								"patchline" : 								{
									"destination" : [ "obj-46", 0 ],
									"disabled" : 0,
									"hidden" : 0,
									"source" : [ "obj-19", 5 ]
								}

							}
, 							{
								"patchline" : 								{
									"destination" : [ "obj-60", 0 ],
									"disabled" : 0,
									"hidden" : 0,
									"source" : [ "obj-19", 2 ]
								}

							}
, 							{
								"patchline" : 								{
									"destination" : [ "obj-19", 0 ],
									"disabled" : 0,
									"hidden" : 0,
									"source" : [ "obj-2", 0 ]
								}

							}
, 							{
								"patchline" : 								{
									"destination" : [ "obj-35", 0 ],
									"disabled" : 0,
									"hidden" : 0,
									"source" : [ "obj-22", 0 ]
								}

							}
, 							{
								"patchline" : 								{
									"color" : [ 0.0, 0.0, 0.0, 1.0 ],
									"destination" : [ "obj-11", 0 ],
									"disabled" : 0,
									"hidden" : 0,
									"source" : [ "obj-23", 0 ]
								}

							}
, 							{
								"patchline" : 								{
									"destination" : [ "obj-1", 0 ],
									"disabled" : 0,
									"hidden" : 0,
									"source" : [ "obj-24", 0 ]
								}

							}
, 							{
								"patchline" : 								{
									"destination" : [ "obj-1", 0 ],
									"disabled" : 0,
									"hidden" : 0,
									"source" : [ "obj-25", 0 ]
								}

							}
, 							{
								"patchline" : 								{
									"destination" : [ "obj-20", 0 ],
									"disabled" : 0,
									"hidden" : 0,
									"source" : [ "obj-26", 0 ]
								}

							}
, 							{
								"patchline" : 								{
									"destination" : [ "obj-45", 0 ],
									"disabled" : 0,
									"hidden" : 0,
									"source" : [ "obj-26", 0 ]
								}

							}
, 							{
								"patchline" : 								{
									"destination" : [ "obj-48", 4 ],
									"disabled" : 0,
									"hidden" : 0,
									"source" : [ "obj-28", 0 ]
								}

							}
, 							{
								"patchline" : 								{
									"destination" : [ "obj-50", 0 ],
									"disabled" : 0,
									"hidden" : 0,
									"source" : [ "obj-30", 0 ]
								}

							}
, 							{
								"patchline" : 								{
									"destination" : [ "obj-22", 0 ],
									"disabled" : 0,
									"hidden" : 0,
									"source" : [ "obj-31", 0 ]
								}

							}
, 							{
								"patchline" : 								{
									"destination" : [ "obj-57", 0 ],
									"disabled" : 0,
									"hidden" : 0,
									"source" : [ "obj-32", 0 ]
								}

							}
, 							{
								"patchline" : 								{
									"destination" : [ "obj-62", 0 ],
									"disabled" : 0,
									"hidden" : 0,
									"source" : [ "obj-32", 0 ]
								}

							}
, 							{
								"patchline" : 								{
									"destination" : [ "obj-30", 0 ],
									"disabled" : 0,
									"hidden" : 0,
									"source" : [ "obj-33", 0 ]
								}

							}
, 							{
								"patchline" : 								{
									"destination" : [ "obj-24", 0 ],
									"disabled" : 0,
									"hidden" : 0,
									"source" : [ "obj-34", 0 ]
								}

							}
, 							{
								"patchline" : 								{
									"destination" : [ "obj-49", 0 ],
									"disabled" : 0,
									"hidden" : 0,
									"source" : [ "obj-35", 0 ]
								}

							}
, 							{
								"patchline" : 								{
									"destination" : [ "obj-44", 0 ],
									"disabled" : 0,
									"hidden" : 0,
									"source" : [ "obj-36", 0 ]
								}

							}
, 							{
								"patchline" : 								{
									"destination" : [ "obj-69", 0 ],
									"disabled" : 0,
									"hidden" : 0,
									"source" : [ "obj-36", 0 ]
								}

							}
, 							{
								"patchline" : 								{
									"destination" : [ "obj-40", 0 ],
									"disabled" : 0,
									"hidden" : 0,
									"source" : [ "obj-37", 0 ]
								}

							}
, 							{
								"patchline" : 								{
									"destination" : [ "obj-51", 0 ],
									"disabled" : 0,
									"hidden" : 0,
									"source" : [ "obj-38", 0 ]
								}

							}
, 							{
								"patchline" : 								{
									"destination" : [ "obj-1", 1 ],
									"disabled" : 0,
									"hidden" : 0,
									"source" : [ "obj-39", 1 ]
								}

							}
, 							{
								"patchline" : 								{
									"destination" : [ "obj-1", 0 ],
									"disabled" : 0,
									"hidden" : 0,
									"source" : [ "obj-39", 0 ]
								}

							}
, 							{
								"patchline" : 								{
									"destination" : [ "obj-6", 1 ],
									"disabled" : 0,
									"hidden" : 0,
									"source" : [ "obj-39", 1 ]
								}

							}
, 							{
								"patchline" : 								{
									"destination" : [ "obj-6", 0 ],
									"disabled" : 0,
									"hidden" : 0,
									"source" : [ "obj-39", 0 ]
								}

							}
, 							{
								"patchline" : 								{
									"destination" : [ "obj-38", 0 ],
									"disabled" : 0,
									"hidden" : 0,
									"source" : [ "obj-40", 0 ]
								}

							}
, 							{
								"patchline" : 								{
									"destination" : [ "obj-33", 0 ],
									"disabled" : 0,
									"hidden" : 0,
									"source" : [ "obj-44", 0 ]
								}

							}
, 							{
								"patchline" : 								{
									"destination" : [ "obj-23", 0 ],
									"disabled" : 0,
									"hidden" : 0,
									"source" : [ "obj-45", 0 ]
								}

							}
, 							{
								"patchline" : 								{
									"destination" : [ "obj-48", 0 ],
									"disabled" : 0,
									"hidden" : 0,
									"source" : [ "obj-46", 0 ]
								}

							}
, 							{
								"patchline" : 								{
									"destination" : [ "obj-25", 0 ],
									"disabled" : 0,
									"hidden" : 0,
									"source" : [ "obj-47", 0 ]
								}

							}
, 							{
								"patchline" : 								{
									"destination" : [ "obj-59", 1 ],
									"disabled" : 0,
									"hidden" : 0,
									"source" : [ "obj-48", 0 ]
								}

							}
, 							{
								"patchline" : 								{
									"destination" : [ "obj-61", 0 ],
									"disabled" : 0,
									"hidden" : 0,
									"source" : [ "obj-57", 0 ]
								}

							}
, 							{
								"patchline" : 								{
									"destination" : [ "obj-31", 0 ],
									"disabled" : 0,
									"hidden" : 0,
									"source" : [ "obj-58", 0 ]
								}

							}
, 							{
								"patchline" : 								{
									"destination" : [ "obj-58", 0 ],
									"disabled" : 0,
									"hidden" : 0,
									"source" : [ "obj-59", 0 ]
								}

							}
, 							{
								"patchline" : 								{
									"destination" : [ "obj-37", 0 ],
									"disabled" : 0,
									"hidden" : 0,
									"source" : [ "obj-6", 1 ]
								}

							}
, 							{
								"patchline" : 								{
									"destination" : [ "obj-26", 0 ],
									"disabled" : 0,
									"hidden" : 0,
									"source" : [ "obj-60", 0 ]
								}

							}
, 							{
								"patchline" : 								{
									"destination" : [ "obj-13", 0 ],
									"disabled" : 0,
									"hidden" : 0,
									"source" : [ "obj-61", 0 ]
								}

							}
, 							{
								"patchline" : 								{
									"destination" : [ "obj-13", 0 ],
									"disabled" : 0,
									"hidden" : 0,
									"source" : [ "obj-62", 0 ]
								}

							}
, 							{
								"patchline" : 								{
									"destination" : [ "obj-32", 0 ],
									"disabled" : 0,
									"hidden" : 0,
									"source" : [ "obj-74", 0 ]
								}

							}
 ]
					}
,
					"patching_rect" : [ 19.0, 146.0, 163.0, 116.0 ],
					"varname" : "MIDI",
					"viewvisibility" : 1
				}

			}
, 			{
				"box" : 				{
					"bgmode" : 0,
					"border" : 0,
					"clickthrough" : 0,
					"enablehscroll" : 0,
					"enablevscroll" : 0,
					"extract" : 1,
					"id" : "obj-39",
					"lockeddragscroll" : 0,
					"maxclass" : "bpatcher",
					"name" : "bp.VCA.maxpat",
					"numinlets" : 2,
					"numoutlets" : 1,
					"offset" : [ 0.0, 0.0 ],
					"outlettype" : [ "signal" ],
					"patching_rect" : [ 19.0, 549.0, 113.0, 116.0 ],
					"varname" : "bp.VCA",
					"viewvisibility" : 1
				}

			}
, 			{
				"box" : 				{
					"bgmode" : 0,
					"border" : 0,
					"clickthrough" : 0,
					"enablehscroll" : 0,
					"enablevscroll" : 0,
					"extract" : 1,
					"id" : "obj-38",
					"lockeddragscroll" : 0,
					"maxclass" : "bpatcher",
					"name" : "bp.LPF.maxpat",
					"numinlets" : 5,
					"numoutlets" : 1,
					"offset" : [ 0.0, 0.0 ],
					"outlettype" : [ "signal" ],
					"patching_rect" : [ 19.0, 407.0, 304.0, 116.0 ],
					"varname" : "bp.LPF",
					"viewvisibility" : 1
				}

			}
, 			{
				"box" : 				{
					"bgmode" : 0,
					"border" : 0,
					"clickthrough" : 0,
					"enablehscroll" : 0,
					"enablevscroll" : 0,
					"extract" : 1,
					"id" : "obj-37",
					"lockeddragscroll" : 0,
					"maxclass" : "bpatcher",
					"name" : "bp.Oscillator.maxpat",
					"numinlets" : 6,
					"numoutlets" : 2,
					"offset" : [ 0.0, 0.0 ],
					"outlettype" : [ "signal", "signal" ],
					"patching_rect" : [ 19.0, 280.0, 314.0, 116.0 ],
					"varname" : "bp.Oscillator",
					"viewvisibility" : 1
				}

			}
, 			{
				"box" : 				{
					"bgmode" : 0,
					"border" : 0,
					"clickthrough" : 0,
					"enablehscroll" : 0,
					"enablevscroll" : 0,
					"extract" : 1,
					"id" : "obj-35",
					"lockeddragscroll" : 0,
					"maxclass" : "bpatcher",
					"name" : "bp.Stereo.maxpat",
					"numinlets" : 2,
					"numoutlets" : 0,
					"offset" : [ 0.0, 0.0 ],
					"patching_rect" : [ 10.0, 680.0, 148.0, 116.0 ],
					"presentation" : 1,
					"presentation_rect" : [ 9.0, 13.5, 148.0, 116.0 ],
					"varname" : "bp.Stereo",
					"viewvisibility" : 1
				}

			}
 ],
		"lines" : [ 			{
				"patchline" : 				{
					"destination" : [ "obj-16", 2 ],
					"disabled" : 0,
					"hidden" : 0,
					"source" : [ "obj-10", 0 ]
				}

			}
, 			{
				"patchline" : 				{
					"destination" : [ "obj-17", 0 ],
					"disabled" : 0,
					"hidden" : 0,
					"source" : [ "obj-14", 0 ]
				}

			}
, 			{
				"patchline" : 				{
					"destination" : [ "obj-14", 1 ],
					"disabled" : 0,
					"hidden" : 0,
					"source" : [ "obj-16", 1 ]
				}

			}
, 			{
				"patchline" : 				{
					"destination" : [ "obj-14", 0 ],
					"disabled" : 0,
					"hidden" : 0,
					"source" : [ "obj-16", 0 ]
				}

			}
, 			{
				"patchline" : 				{
					"destination" : [ "obj-1", 0 ],
					"disabled" : 0,
					"hidden" : 0,
					"source" : [ "obj-17", 0 ]
				}

			}
, 			{
				"patchline" : 				{
					"destination" : [ "obj-16", 1 ],
					"disabled" : 0,
					"hidden" : 0,
					"source" : [ "obj-24", 0 ]
				}

			}
, 			{
				"patchline" : 				{
					"destination" : [ "obj-16", 0 ],
					"disabled" : 0,
					"hidden" : 0,
					"source" : [ "obj-28", 0 ]
				}

			}
, 			{
				"patchline" : 				{
					"destination" : [ "obj-5", 0 ],
					"disabled" : 0,
					"hidden" : 0,
					"source" : [ "obj-3", 0 ]
				}

			}
, 			{
				"patchline" : 				{
					"destination" : [ "obj-38", 0 ],
					"disabled" : 0,
					"hidden" : 0,
					"source" : [ "obj-37", 0 ]
				}

			}
, 			{
				"patchline" : 				{
					"destination" : [ "obj-39", 0 ],
					"disabled" : 0,
					"hidden" : 0,
					"source" : [ "obj-38", 0 ]
				}

			}
, 			{
				"patchline" : 				{
					"destination" : [ "obj-35", 1 ],
					"disabled" : 0,
					"hidden" : 0,
					"source" : [ "obj-39", 0 ]
				}

			}
, 			{
				"patchline" : 				{
					"destination" : [ "obj-35", 0 ],
					"disabled" : 0,
					"hidden" : 0,
					"source" : [ "obj-39", 0 ]
				}

			}
, 			{
				"patchline" : 				{
					"destination" : [ "obj-39", 1 ],
					"disabled" : 0,
					"hidden" : 0,
					"source" : [ "obj-40", 0 ]
				}

			}
, 			{
				"patchline" : 				{
					"destination" : [ "obj-37", 0 ],
					"disabled" : 0,
					"hidden" : 0,
					"source" : [ "obj-41", 0 ]
				}

			}
, 			{
				"patchline" : 				{
					"destination" : [ "obj-40", 0 ],
					"disabled" : 0,
					"hidden" : 0,
					"source" : [ "obj-41", 1 ]
				}

			}
, 			{
				"patchline" : 				{
					"destination" : [ "obj-41", 0 ],
					"disabled" : 0,
					"hidden" : 0,
					"midpoints" : [ 209.5, 256.0, 190.5, 256.0, 190.5, 135.0, 28.5, 135.0 ],
					"source" : [ "obj-5", 0 ]
				}

			}
, 			{
				"patchline" : 				{
					"destination" : [ "obj-28", 0 ],
					"disabled" : 0,
					"hidden" : 0,
					"source" : [ "obj-78", 0 ]
				}

			}
, 			{
				"patchline" : 				{
					"destination" : [ "obj-16", 0 ],
					"disabled" : 0,
					"hidden" : 0,
					"source" : [ "obj-9", 0 ]
				}

			}
 ],
		"parameters" : 		{
			"obj-5::obj-9::obj-133::obj-8" : [ "4141_notemap", "notemap", 0 ],
			"obj-5::obj-9::obj-118::obj-8" : [ "4136_notemap", "notemap", 0 ],
			"obj-5::obj-9::obj-229::obj-8" : [ "4077_notemap", "notemap", 0 ],
			"obj-38::obj-22" : [ "TimeMode", "TimeMode", 1 ],
			"obj-40::obj-30" : [ "Legato", "Legato", 0 ],
			"obj-5::obj-9::obj-1::obj-8" : [ "4194_notemap", "notemap", 0 ],
			"obj-5::obj-9::obj-103::obj-8" : [ "4131_notemap", "notemap", 0 ],
			"obj-5::obj-9::obj-214::obj-8" : [ "4072_notemap", "notemap", 0 ],
			"obj-5::obj-41::obj-2" : [ "pastebang", "pastebang", 0 ],
			"obj-41::obj-69" : [ "1voctled", "1voctled", 0 ],
			"obj-5::obj-9::obj-71::obj-8" : [ "4190_notemap", "notemap", 0 ],
			"obj-5::obj-9::obj-376::obj-8" : [ "4126_notemap", "notemap", 0 ],
			"obj-5::obj-9::obj-199::obj-8" : [ "4067_notemap", "notemap", 0 ],
			"obj-5::obj-9::obj-92::obj-8" : [ "4185_notemap", "notemap", 0 ],
			"obj-5::obj-9::obj-361::obj-8" : [ "4121_notemap", "notemap", 0 ],
			"obj-5::obj-9::obj-77::obj-8" : [ "4180_notemap", "notemap", 0 ],
			"obj-5::obj-9::obj-346::obj-8" : [ "4116_notemap", "notemap", 0 ],
			"obj-5::obj-9::obj-46::obj-8" : [ "4175_notemap", "notemap", 0 ],
			"obj-5::obj-9::obj-331::obj-8" : [ "4111_notemap", "notemap", 0 ],
			"obj-37::obj-107" : [ "Linear", "Linear", 0 ],
			"obj-38::obj-20" : [ "Freq", "Freq", 0 ],
			"obj-39::obj-33" : [ "Quadrants", "Quadrants", 0 ],
			"obj-5::obj-9::obj-31::obj-8" : [ "4170_notemap", "notemap", 0 ],
			"obj-5::obj-9::obj-316::obj-8" : [ "4106_notemap", "notemap", 0 ],
			"obj-35::obj-22" : [ "Mute[2]", "Mute", 0 ],
			"obj-40::obj-29" : [ "Decay", "Decay", 0 ],
			"obj-5::obj-9::obj-11::obj-8" : [ "4165_notemap", "notemap", 0 ],
			"obj-5::obj-9::obj-301::obj-8" : [ "4101_notemap", "notemap", 0 ],
			"obj-5::obj-9::obj-190::obj-8" : [ "4160_notemap", "notemap", 0 ],
			"obj-5::obj-9::obj-286::obj-8" : [ "4096_notemap", "notemap", 0 ],
			"obj-37::obj-46" : [ "Offset[1]", "Offset", 0 ],
			"obj-5::obj-9::obj-175::obj-8" : [ "4155_notemap", "notemap", 0 ],
			"obj-5::obj-9::obj-271::obj-8" : [ "4091_notemap", "notemap", 0 ],
			"obj-5::obj-9::obj-160::obj-8" : [ "4150_notemap", "notemap", 0 ],
			"obj-5::obj-9::obj-256::obj-8" : [ "4086_notemap", "notemap", 0 ],
			"obj-5::obj-9::obj-145::obj-8" : [ "4145_notemap", "notemap", 0 ],
			"obj-5::obj-9::obj-130::obj-8" : [ "4140_notemap", "notemap", 0 ],
			"obj-5::obj-9::obj-241::obj-8" : [ "4081_notemap", "notemap", 0 ],
			"obj-5::obj-9::obj-115::obj-8" : [ "4135_notemap", "notemap", 0 ],
			"obj-5::obj-9::obj-226::obj-8" : [ "4076_notemap", "notemap", 0 ],
			"obj-5::obj-9::obj-388::obj-8" : [ "4130_notemap", "notemap", 0 ],
			"obj-5::obj-9::obj-211::obj-8" : [ "4071_notemap", "notemap", 0 ],
			"obj-35::obj-55" : [ "DSP", "DSP", 0 ],
			"obj-38::obj-23" : [ "Offset", "Offset", 0 ],
			"obj-5::obj-9::obj-68::obj-8" : [ "4189_notemap", "notemap", 0 ],
			"obj-5::obj-9::obj-373::obj-8" : [ "4125_notemap", "notemap", 0 ],
			"obj-5::obj-23::obj-2" : [ "pastebang[1]", "pastebang", 0 ],
			"obj-5::obj-9::obj-89::obj-8" : [ "4184_notemap", "notemap", 0 ],
			"obj-5::obj-9::obj-358::obj-8" : [ "4120_notemap", "notemap", 0 ],
			"obj-5::obj-9::obj-74::obj-8" : [ "4179_notemap", "notemap", 0 ],
			"obj-5::obj-9::obj-343::obj-8" : [ "4115_notemap", "notemap", 0 ],
			"obj-5::obj-9::obj-43::obj-8" : [ "4174_notemap", "notemap", 0 ],
			"obj-5::obj-9::obj-328::obj-8" : [ "4110_notemap", "notemap", 0 ],
			"obj-37::obj-45" : [ "FreqMode", "FreqMode", 0 ],
			"obj-39::obj-80" : [ "Response", "Response", 0 ],
			"obj-5::obj-9::obj-28::obj-8" : [ "4169_notemap", "notemap", 0 ],
			"obj-5::obj-9::obj-313::obj-8" : [ "4105_notemap", "notemap", 0 ],
			"obj-40::obj-20" : [ "Mute", "Mute", 0 ],
			"obj-5::obj-9::obj-8::obj-8" : [ "4164_notemap", "notemap", 0 ],
			"obj-5::obj-9::obj-298::obj-8" : [ "4100_notemap", "notemap", 0 ],
			"obj-37::obj-106" : [ "CV3[1]", "CV3", 0 ],
			"obj-5::obj-9::obj-187::obj-8" : [ "4159_notemap", "notemap", 0 ],
			"obj-5::obj-9::obj-283::obj-8" : [ "4095_notemap", "notemap", 0 ],
			"obj-5::obj-29" : [ "mute", "mute", 0 ],
			"obj-41::obj-28" : [ "Bend", "Bend", 0 ],
			"obj-5::obj-9::obj-172::obj-8" : [ "4154_notemap", "notemap", 0 ],
			"obj-5::obj-9::obj-268::obj-8" : [ "4090_notemap", "notemap", 0 ],
			"obj-5::obj-80" : [ "save", "save", 0 ],
			"obj-37::obj-36" : [ "PW", "PW", 0 ],
			"obj-5::obj-9::obj-157::obj-8" : [ "4149_notemap", "notemap", 0 ],
			"obj-5::obj-9::obj-253::obj-8" : [ "4085_notemap", "notemap", 0 ],
			"obj-5::obj-9::obj-142::obj-8" : [ "4144_notemap", "notemap", 0 ],
			"obj-5::obj-9::obj-127::obj-8" : [ "4139_notemap", "notemap", 0 ],
			"obj-5::obj-9::obj-238::obj-8" : [ "4080_notemap", "notemap", 0 ],
			"obj-5::obj-9::obj-112::obj-8" : [ "4134_notemap", "notemap", 0 ],
			"obj-5::obj-9::obj-223::obj-8" : [ "4075_notemap", "notemap", 0 ],
			"obj-5::obj-9::obj-53::obj-8" : [ "4193_notemap", "notemap", 0 ],
			"obj-5::obj-9::obj-385::obj-8" : [ "4129_notemap", "notemap", 0 ],
			"obj-5::obj-9::obj-208::obj-8" : [ "4070_notemap", "notemap", 0 ],
			"obj-35::obj-56" : [ "OutputChannel", "OutputChannel", 0 ],
			"obj-5::obj-9::obj-65::obj-8" : [ "4188_notemap", "notemap", 0 ],
			"obj-5::obj-9::obj-370::obj-8" : [ "4124_notemap", "notemap", 0 ],
			"obj-5::obj-9::obj-86::obj-8" : [ "4183_notemap", "notemap", 0 ],
			"obj-5::obj-9::obj-355::obj-8" : [ "4119_notemap", "notemap", 0 ],
			"obj-5::obj-9::obj-100::obj-8" : [ "4178_notemap", "notemap", 0 ],
			"obj-5::obj-9::obj-340::obj-8" : [ "4114_notemap", "notemap", 0 ],
			"obj-38::obj-54" : [ "CV1", "CV1", 0 ],
			"obj-5::obj-9::obj-40::obj-8" : [ "4173_notemap", "notemap", 0 ],
			"obj-5::obj-9::obj-325::obj-8" : [ "4109_notemap", "notemap", 0 ],
			"obj-38::obj-68" : [ "Res", "Res", 0 ],
			"obj-5::obj-9::obj-25::obj-8" : [ "4168_notemap", "notemap", 0 ],
			"obj-5::obj-9::obj-310::obj-8" : [ "4104_notemap", "notemap", 0 ],
			"obj-38::obj-55" : [ "power", "power", 0 ],
			"obj-40::obj-31" : [ "Release", "Release", 0 ],
			"obj-5::obj-9::obj-5::obj-8" : [ "4163_notemap", "notemap", 0 ],
			"obj-5::obj-9::obj-295::obj-8" : [ "4099_notemap", "notemap", 0 ],
			"obj-5::obj-56" : [ "initalize", "initalize", 0 ],
			"obj-37::obj-51" : [ "Freq[1]", "Freq", 0 ],
			"obj-5::obj-9::obj-184::obj-8" : [ "4158_notemap", "notemap", 0 ],
			"obj-5::obj-9::obj-280::obj-8" : [ "4094_notemap", "notemap", 0 ],
			"obj-41::obj-20" : [ "ModWheelActivityLED", "ModWheelActivityLED", 0 ],
			"obj-5::obj-9::obj-169::obj-8" : [ "4153_notemap", "notemap", 0 ],
			"obj-5::obj-9::obj-265::obj-8" : [ "4089_notemap", "notemap", 0 ],
			"obj-37::obj-11" : [ "PWM", "PWM", 0 ],
			"obj-5::obj-9::obj-154::obj-8" : [ "4148_notemap", "notemap", 0 ],
			"obj-5::obj-9::obj-250::obj-8" : [ "4084_notemap", "notemap", 0 ],
			"obj-5::obj-9::obj-139::obj-8" : [ "4143_notemap", "notemap", 0 ],
			"obj-5::obj-9::obj-124::obj-8" : [ "4138_notemap", "notemap", 0 ],
			"obj-5::obj-9::obj-235::obj-8" : [ "4079_notemap", "notemap", 0 ],
			"obj-5::obj-9::obj-109::obj-8" : [ "4133_notemap", "notemap", 0 ],
			"obj-5::obj-9::obj-220::obj-8" : [ "4074_notemap", "notemap", 0 ],
			"obj-5::obj-9::obj-59::obj-8" : [ "4192_notemap", "notemap", 0 ],
			"obj-5::obj-9::obj-382::obj-8" : [ "4128_notemap", "notemap", 0 ],
			"obj-5::obj-9::obj-205::obj-8" : [ "4069_notemap", "notemap", 0 ],
			"obj-5::obj-9::obj-62::obj-8" : [ "4187_notemap", "notemap", 0 ],
			"obj-5::obj-9::obj-367::obj-8" : [ "4123_notemap", "notemap", 0 ],
			"obj-5::obj-9::obj-83::obj-8" : [ "4182_notemap", "notemap", 0 ],
			"obj-5::obj-9::obj-352::obj-8" : [ "4118_notemap", "notemap", 0 ],
			"obj-5::obj-9::obj-97::obj-8" : [ "4177_notemap", "notemap", 0 ],
			"obj-5::obj-9::obj-337::obj-8" : [ "4113_notemap", "notemap", 0 ],
			"obj-38::obj-51" : [ "CV2", "CV2", 0 ],
			"obj-5::obj-9::obj-37::obj-8" : [ "4172_notemap", "notemap", 0 ],
			"obj-5::obj-9::obj-322::obj-8" : [ "4108_notemap", "notemap", 0 ],
			"obj-38::obj-95" : [ "ResCV", "CV", 0 ],
			"obj-5::obj-9::obj-22::obj-8" : [ "4167_notemap", "notemap", 0 ],
			"obj-5::obj-9::obj-307::obj-8" : [ "4103_notemap", "notemap", 0 ],
			"obj-40::obj-32" : [ "Sustain", "Sustain", 0 ],
			"obj-5::obj-9::obj-196::obj-8" : [ "4162_notemap", "notemap", 0 ],
			"obj-5::obj-9::obj-292::obj-8" : [ "4098_notemap", "notemap", 0 ],
			"obj-37::obj-53" : [ "Mute[1]", "Mute", 0 ],
			"obj-5::obj-9::obj-181::obj-8" : [ "4157_notemap", "notemap", 0 ],
			"obj-5::obj-9::obj-277::obj-8" : [ "4093_notemap", "notemap", 0 ],
			"obj-5::obj-9::obj-166::obj-8" : [ "4152_notemap", "notemap", 0 ],
			"obj-5::obj-9::obj-262::obj-8" : [ "4088_notemap", "notemap", 0 ],
			"obj-37::obj-4" : [ "Waveform", "Waveform", 0 ],
			"obj-5::obj-9::obj-151::obj-8" : [ "4147_notemap", "notemap", 0 ],
			"obj-5::obj-9::obj-247::obj-8" : [ "4083_notemap", "notemap", 0 ],
			"obj-5::obj-9::obj-136::obj-8" : [ "4142_notemap", "notemap", 0 ],
			"obj-5::obj-9::obj-121::obj-8" : [ "4137_notemap", "notemap", 0 ],
			"obj-5::obj-9::obj-232::obj-8" : [ "4078_notemap", "notemap", 0 ],
			"obj-5::obj-9::obj-106::obj-8" : [ "4132_notemap", "notemap", 0 ],
			"obj-5::obj-9::obj-217::obj-8" : [ "4073_notemap", "notemap", 0 ],
			"obj-5::obj-9::obj-56::obj-8" : [ "4191_notemap", "notemap", 0 ],
			"obj-5::obj-9::obj-379::obj-8" : [ "4127_notemap", "notemap", 0 ],
			"obj-5::obj-9::obj-202::obj-8" : [ "4068_notemap", "notemap", 0 ],
			"obj-5::obj-9::obj-95::obj-8" : [ "4186_notemap", "notemap", 0 ],
			"obj-5::obj-9::obj-364::obj-8" : [ "4122_notemap", "notemap", 0 ],
			"obj-5::obj-9::obj-80::obj-8" : [ "4181_notemap", "notemap", 0 ],
			"obj-5::obj-9::obj-349::obj-8" : [ "4117_notemap", "notemap", 0 ],
			"obj-5::obj-9::obj-49::obj-8" : [ "4176_notemap", "notemap", 0 ],
			"obj-5::obj-9::obj-334::obj-8" : [ "4112_notemap", "notemap", 0 ],
			"obj-38::obj-63" : [ "CV3", "CV3", 0 ],
			"obj-39::obj-55" : [ "Bypass", "Bypass", 0 ],
			"obj-5::obj-9::obj-34::obj-8" : [ "4171_notemap", "notemap", 0 ],
			"obj-5::obj-9::obj-319::obj-8" : [ "4107_notemap", "notemap", 0 ],
			"obj-40::obj-1" : [ "Attack", "Attack", 0 ],
			"obj-5::obj-9::obj-19::obj-8" : [ "4166_notemap", "notemap", 0 ],
			"obj-5::obj-9::obj-304::obj-8" : [ "4102_notemap", "notemap", 0 ],
			"obj-5::obj-9::obj-193::obj-8" : [ "4161_notemap", "notemap", 0 ],
			"obj-5::obj-9::obj-289::obj-8" : [ "4097_notemap", "notemap", 0 ],
			"obj-35::obj-52" : [ "Level", "Level", 0 ],
			"obj-37::obj-129" : [ "CV2[1]", "CV2", 0 ],
			"obj-5::obj-9::obj-178::obj-8" : [ "4156_notemap", "notemap", 0 ],
			"obj-5::obj-9::obj-274::obj-8" : [ "4092_notemap", "notemap", 0 ],
			"obj-5::obj-9::obj-163::obj-8" : [ "4151_notemap", "notemap", 0 ],
			"obj-5::obj-9::obj-259::obj-8" : [ "4087_notemap", "notemap", 0 ],
			"obj-5::obj-9::obj-148::obj-8" : [ "4146_notemap", "notemap", 0 ],
			"obj-5::obj-9::obj-244::obj-8" : [ "4082_notemap", "notemap", 0 ],
			"obj-5::obj-58" : [ "reverse", "reverse", 0 ]
		}
,
		"dependency_cache" : [ 			{
				"name" : "bp.Stereo.maxpat",
				"bootpath" : "C74:/packages/BEAP/clippings/BEAP/Output",
				"type" : "JSON",
				"implicit" : 1
			}
, 			{
				"name" : "bp.Oscillator.maxpat",
				"bootpath" : "C74:/packages/BEAP/clippings/BEAP/Oscillator",
				"type" : "JSON",
				"implicit" : 1
			}
, 			{
				"name" : "sine.svg",
				"bootpath" : "C74:/media/max/picts/m4l-picts",
				"type" : "svg ",
				"implicit" : 1
			}
, 			{
				"name" : "updown.svg",
				"bootpath" : "C74:/media/max/picts/m4l-picts",
				"type" : "svg ",
				"implicit" : 1
			}
, 			{
				"name" : "up.svg",
				"bootpath" : "C74:/media/max/picts/m4l-picts",
				"type" : "svg ",
				"implicit" : 1
			}
, 			{
				"name" : "square.svg",
				"bootpath" : "C74:/media/max/picts/m4l-picts",
				"type" : "svg ",
				"implicit" : 1
			}
, 			{
				"name" : "bp.LPF.maxpat",
				"bootpath" : "C74:/packages/BEAP/clippings/BEAP/Filter",
				"type" : "JSON",
				"implicit" : 1
			}
, 			{
				"name" : "bp.VCA.maxpat",
				"bootpath" : "C74:/packages/BEAP/clippings/BEAP/Level",
				"type" : "JSON",
				"implicit" : 1
			}
, 			{
				"name" : "bp.ADSR.maxpat",
				"bootpath" : "C74:/packages/BEAP/clippings/BEAP/Envelope",
				"type" : "JSON",
				"implicit" : 1
			}
, 			{
				"name" : "background_sm.maxpat",
				"bootpath" : "C74:/packages/BEAP/misc",
				"type" : "JSON",
				"implicit" : 1
			}
, 			{
				"name" : "bp.Arbitrary Note Map.maxpat",
				"bootpath" : "C74:/packages/BEAP/clippings/BEAP/MIDI",
				"type" : "JSON",
				"implicit" : 1
			}
, 			{
				"name" : "mapperrow.maxpat",
				"bootpath" : "C74:/packages/BEAP/misc",
				"type" : "JSON",
				"implicit" : 1
			}
, 			{
				"name" : "pastebang.maxpat",
				"bootpath" : "C74:/packages/BEAP/misc",
				"type" : "JSON",
				"implicit" : 1
			}
 ],
		"autosave" : 0
	}

}
